<svg width="203" height="70" fill="none" xmlns="http://www.w3.org/2000/svg"><path d="M67.735 68.41H53.113L47.301 53.29H20.69L15.195 68.41H.937L26.867 1.84H41.08L67.735 68.41ZM42.987 42.072 33.814 17.37l-8.991 24.703h18.164Zm62.893 1.862V32.718h28.972v26.52c-2.816 2.724-6.903 5.13-12.261 7.22-5.328 2.058-10.732 3.087-16.212 3.087-6.963 0-13.032-1.453-18.21-4.359-5.176-2.937-9.066-7.114-11.67-12.533-2.603-5.45-3.905-11.368-3.905-17.755 0-6.933 1.453-13.094 4.36-18.483 2.906-5.388 7.16-9.52 12.76-12.396 4.268-2.21 9.581-3.315 15.939-3.315 8.264 0 14.713 1.74 19.345 5.222 4.662 3.451 7.659 8.234 8.991 14.35l-13.351 2.497c-.938-3.27-2.709-5.843-5.313-7.72-2.573-1.907-5.797-2.86-9.672-2.86-5.873 0-10.55 1.861-14.032 5.585-3.451 3.724-5.177 9.248-5.177 16.575 0 7.9 1.756 13.834 5.268 17.8 3.512 3.936 8.113 5.904 13.805 5.904 2.815 0 5.63-.545 8.446-1.635 2.846-1.12 5.283-2.467 7.311-4.042v-8.446H105.88Zm84.009 0 13.032 4.132c-1.998 7.266-5.328 12.67-9.99 16.212-4.632 3.512-10.52 5.267-17.664 5.267-8.84 0-16.106-3.012-21.797-9.036-5.692-6.055-8.537-14.32-8.537-24.794 0-11.08 2.86-19.678 8.582-25.793C159.237 3.776 166.76.704 176.084.704c8.144 0 14.758 2.406 19.844 7.22 3.028 2.846 5.298 6.932 6.812 12.26l-13.305 3.18c-.788-3.452-2.437-6.177-4.95-8.175-2.483-1.998-5.51-2.997-9.082-2.997-4.935 0-8.946 1.771-12.034 5.313-3.057 3.542-4.586 9.28-4.586 17.21 0 8.417 1.513 14.411 4.541 17.983 3.027 3.572 6.963 5.359 11.806 5.359 3.573 0 6.645-1.136 9.219-3.406 2.573-2.27 4.42-5.843 5.54-10.717Z" fill="#414141" fill-opacity=".2"/></svg>