<svg width="151" height="122" fill="none" xmlns="http://www.w3.org/2000/svg"><path d="M147.664 22.931a4.945 4.945 0 0 0-5.949-2.547c-.75.24-1.432.656-1.989 1.213l-14.999 14.999a3.267 3.267 0 0 1-4.592 0l-6.591-6.592a3.275 3.275 0 0 1 0-4.595l14.919-14.922a4.941 4.941 0 0 0-1.545-8.035C115.274-2.533 100.797.267 91.73 9.282c-7.861 7.802-10.213 19.939-6.45 33.34a3.226 3.226 0 0 1-.927 3.254l-50.7 47.108a16.645 16.645 0 0 0 4.961 27.831 16.65 16.65 0 0 0 18.539-4.32l23.764-25.394 23.765-25.394a3.228 3.228 0 0 1 3.196-.93c13.196 3.52 25.218 1.174 32.968-6.45 4.457-4.399 7.568-10.606 8.765-17.509 1.123-6.51.413-13.031-1.947-17.887Z" fill="#fff"/><path d="M128.238 96.886c-4.088-3.399-12.82-11.26-21.72-19.418L87.145 98.173c8.28 8.797 15.775 16.963 19.059 20.784l.021.024a8.791 8.791 0 0 0 6.293 3.002h.322a8.823 8.823 0 0 0 6.158-2.527l.021-.021 9.802-9.785a8.63 8.63 0 0 0 2.528-6.512 8.64 8.64 0 0 0-3.114-6.252h.003ZM34.759 48.837a6.011 6.011 0 0 0-.88-3.155.81.81 0 0 1 .769-1.237h.017c.247.026 1.563.217 3.431 1.352 1.387.841 5.346 3.542 12.237 10.42a10.037 10.037 0 0 0 2.117 6.487l19.42-18.048a9.89 9.89 0 0 0-6.334-2.698.885.885 0 0 1-.061-.076l-.19-.202-7.196-9.923a8.342 8.342 0 0 1-1.173-7.657 10.33 10.33 0 0 1 3.454-4.794c1.668-1.293 5.433-2.85 8.633-3.114 1.49-.123 2.99-.03 4.454.276.7.17 1.392.378 2.07.624a4.692 4.692 0 0 0 5.434-7.164c-.077-.102-.388-.524-.848-1.093a26.976 26.976 0 0 0-2.815-3.038C74.908 3.64 68.715 0 60.584 0a36.096 36.096 0 0 0-13.577 2.64c-11.25 4.53-18.61 10.725-21.995 14.012l-.026.027a65.087 65.087 0 0 0-6.308 7.22 7.918 7.918 0 0 0-1.378 3.45 2.15 2.15 0 0 1-2.26 1.81h-.32a6.055 6.055 0 0 0-4.278 1.73l-8.636 8.418-.094.094a6.126 6.126 0 0 0-.07 8.422c.056.058.108.114.167.17l13.928 13.585a6.158 6.158 0 0 0 4.296 1.76 6.055 6.055 0 0 0 4.278-1.73l8.639-8.443a6.01 6.01 0 0 0 1.81-4.328Z" fill="#fff"/></svg>