<svg width="164" height="104" fill="none" xmlns="http://www.w3.org/2000/svg"><path d="M13.667 64.013c1.898 0 3.226-.762 3.986-2.286.759-1.524.759-3.049 0-4.573-.76-1.524-2.088-2.286-3.986-2.286-1.899 0-3.227.762-3.986 2.286-.76 1.524-.76 3.048 0 4.573.759 1.524 2.088 2.286 3.986 2.286Zm104.849-4.144-2.741-3.572a1688.066 1688.066 0 0 1-2.954-3.858c-.617-.81-1.518-1.977-2.705-3.5a156.192 156.192 0 0 0-3.025-3.787c-.83-1-1.791-2.12-2.883-3.358a121.547 121.547 0 0 0-3.203-3.5l-8.897 10.001c-3.939 4.477-8.886 6.668-14.842 6.573-5.955-.095-10.83-2.429-14.627-7.001-2.705-3.287-4.046-7.05-4.022-11.288.024-4.24 1.412-7.978 4.164-11.217l12.6-14.717c-1.045-.524-2.255-.917-3.631-1.179s-2.503-.405-3.381-.428c-.878-.024-2.219-.012-4.022.035a175.39 175.39 0 0 1-3.488.072c-4.365 0-8.114 1.571-11.246 4.715L38.366 25.148H27.333v38.865c.238 0 .736-.012 1.495-.036.76-.024 1.281-.024 1.566 0 .285.024.748.072 1.388.143.64.071 1.127.178 1.46.321.332.143.747.346 1.245.608.498.262.937.583 1.317.964l21.14 20.861c5.458 5.287 10.844 7.93 16.158 7.93 3.702 0 6.668-1.119 8.898-3.357 2.705.952 5.374.762 8.008-.572 2.633-1.333 4.354-3.358 5.16-6.072 3.512.285 6.525-.762 9.04-3.144.949-.857 1.804-1.94 2.563-3.25.759-1.31 1.091-2.513.996-3.608.475.476 1.495.714 3.061.714 2.041 0 3.868-.5 5.481-1.5s2.788-2.263 3.523-3.787c.736-1.524 1.021-3.227.855-5.108-.166-1.881-.89-3.632-2.171-5.25Zm11.317 4.144h6.834V27.434h-6.62l-11.175-12.86c-3.132-3.62-7.142-5.43-12.03-5.43H94.955c-4.224 0-7.688 1.596-10.392 4.787l-14.877 17.36c-1.329 1.573-1.993 3.359-1.993 5.36 0 2 .64 3.786 1.922 5.357 2.04 2.43 4.65 3.668 7.83 3.715 3.179.048 5.813-1.119 7.9-3.5l13.738-15.575c1.187-1.095 2.456-1.607 3.808-1.536 1.353.072 2.468.715 3.346 1.93.878 1.214 1.08 2.56.605 4.036.759.905 2.088 2.405 3.986 4.5 1.898 2.096 3.322 3.715 4.271 4.859 1.376 1.714 3.334 4.227 5.872 7.537 2.539 3.31 4.07 5.322 4.591 6.037 2.468 3.143 3.892 6.477 4.271 10.002Zm20.5 0c1.898 0 3.227-.762 3.986-2.286.76-1.524.76-3.049 0-4.573-.759-1.524-2.088-2.286-3.986-2.286-1.898 0-3.227.762-3.986 2.286-.759 1.524-.759 3.048 0 4.573.759 1.524 2.088 2.286 3.986 2.286ZM164 22.862v45.723c0 1.238-.451 2.31-1.352 3.215-.902.905-1.97 1.357-3.204 1.357h-30.892c-1.281 3.096-3.227 5.633-5.837 7.61-2.61 1.976-5.576 3.202-8.897 3.678a23.004 23.004 0 0 1-5.73 5.823c-2.254 1.596-4.686 2.68-7.296 3.25-1.993 2.525-4.473 4.466-7.439 5.823-2.966 1.358-6.014 1.941-9.146 1.751-2.848 1.619-5.837 2.56-8.97 2.822-3.131.262-6.156-.072-9.075-1.001a37.582 37.582 0 0 1-8.328-3.822 41.525 41.525 0 0 1-7.367-5.787L30.038 73.157H4.556c-1.234 0-2.302-.452-3.204-1.357C.451 70.895 0 69.823 0 68.585v-48.01c0-1.238.45-2.31 1.352-3.214.902-.905 1.97-1.358 3.204-1.358h29.967c.664-.667 1.78-1.81 3.345-3.43 1.566-1.618 2.693-2.762 3.381-3.428.688-.667 1.732-1.62 3.132-2.858 1.4-1.238 2.598-2.131 3.595-2.68a64.183 64.183 0 0 1 3.63-1.82A17.295 17.295 0 0 1 56.019.392 28.467 28.467 0 0 1 60.86 0h8.328c4.698 0 8.993 1.334 12.884 4 3.891-2.666 8.186-4 12.884-4h11.887c1.661 0 3.251.143 4.769.429 1.519.285 2.859.63 4.022 1.036 1.162.404 2.384 1.036 3.666 1.893a77.901 77.901 0 0 1 3.167 2.215c.831.619 1.851 1.56 3.061 2.822s2.135 2.262 2.776 3 1.613 1.882 2.918 3.43a305.321 305.321 0 0 0 2.954 3.464h25.269c1.234 0 2.302.453 3.204 1.358.901.905 1.352 1.976 1.352 3.215Z" fill="#fff"/></svg>