<svg width="142" height="126" fill="none" xmlns="http://www.w3.org/2000/svg"><path d="M26.296 0c-2.092 0-4.098.83-5.578 2.307a7.868 7.868 0 0 0-2.31 5.568H7.887c-2.091 0-4.098.83-5.577 2.306A7.868 7.868 0 0 0 0 15.75V73.5c0 2.089.831 4.092 2.31 5.569a7.896 7.896 0 0 0 5.579 2.306h10.518V126h10.519V81.375h84.148V126h10.519V81.375h10.518c2.092 0 4.099-.83 5.578-2.306A7.866 7.866 0 0 0 142 73.5V15.75a7.866 7.866 0 0 0-2.311-5.569 7.895 7.895 0 0 0-5.578-2.306h-10.518a7.87 7.87 0 0 0-2.311-5.568 7.897 7.897 0 0 0-11.157 0 7.87 7.87 0 0 0-2.31 5.568h-73.63a7.868 7.868 0 0 0-2.31-5.568A7.896 7.896 0 0 0 26.296 0ZM5.26 31.369l18.276-18.244h26.56L5.258 57.881V31.37Zm7.758 44.756 63.11-63h26.56l-63.111 63h-26.56Zm115.703-63h5.391a2.623 2.623 0 0 1 2.63 2.625v15.881L92.168 76.125H65.61l63.111-63Zm8.021 44.494V73.5a2.623 2.623 0 0 1-2.63 2.625h-15.909l18.539-18.506Z" fill="#fff"/></svg>