<svg width="111" height="123" fill="none" xmlns="http://www.w3.org/2000/svg"><path d="M5 49.889c0-21.16 0-31.742 6.576-38.313C18.152 5.006 28.73 5 49.89 5H61.11c21.16 0 31.742 0 38.313 6.576C105.994 18.152 106 28.73 106 49.89v22.444c0 21.16 0 31.742-6.576 38.313-6.576 6.571-17.153 6.576-38.313 6.576H49.89c-21.16 0-31.742 0-38.313-6.576C5.006 104.07 5 93.493 5 72.333V49.89Z" stroke="#fff" stroke-width="10"/><path d="M33.055 49.89h44.89m-44.89 22.444h28.056" stroke="#fff" stroke-width="10" stroke-linecap="round"/></svg>