<svg width="376" height="106" fill="none" xmlns="http://www.w3.org/2000/svg"><path fill-rule="evenodd" clip-rule="evenodd" d="M157.58 50.155c1.258 0 2.298-.104 3.118-.314.82-.209 1.478-.494 1.974-.855.496-.36.839-.788 1.03-1.282.19-.494.285-1.046.285-1.654 0-1.292-.61-2.365-1.83-3.22-1.22-.856-3.319-1.777-6.293-2.765a47.514 47.514 0 0 1-3.89-1.568 14.338 14.338 0 0 1-3.49-2.223 10.63 10.63 0 0 1-2.517-3.25c-.649-1.273-.973-2.822-.973-4.646 0-1.824.343-3.468 1.03-4.931a10.532 10.532 0 0 1 2.917-3.734c1.259-1.026 2.785-1.815 4.577-2.366 1.792-.55 3.814-.827 6.064-.827 2.67 0 4.978.286 6.922.855 1.946.571 3.548 1.198 4.806 1.882l-2.575 7.012a24.363 24.363 0 0 0-3.689-1.51c-1.354-.438-2.984-.656-4.891-.656-2.136 0-3.671.294-4.606.883-.935.59-1.401 1.492-1.401 2.708 0 .722.171 1.33.515 1.824.343.494.829.94 1.458 1.34.629.4 1.354.76 2.174 1.083.82.323 1.726.656 2.718.998 2.059.76 3.851 1.51 5.377 2.251 1.526.742 2.794 1.606 3.804 2.594a9.378 9.378 0 0 1 2.26 3.477c.496 1.331.744 2.946.744 4.847 0 3.686-1.297 6.546-3.89 8.58-2.593 2.032-6.503 3.049-11.728 3.049-1.755 0-3.337-.105-4.748-.314-1.412-.209-2.66-.465-3.747-.77-1.087-.303-2.022-.627-2.804-.968a21.361 21.361 0 0 1-1.973-.97l2.517-7.069c1.182.646 2.641 1.226 4.377 1.74 1.735.512 3.861.769 6.378.769Zm18.254-32.722h8.924v39.506h-8.924V17.433Zm27.062 40.019c-2.173 0-4.338-.067-6.493-.2a46.045 46.045 0 0 1-6.721-.94v-38.31a57.346 57.346 0 0 1 6.006-.769 77.544 77.544 0 0 1 6.064-.256c2.517 0 4.834.18 6.951.541 2.117.361 3.938.979 5.463 1.853 1.526.875 2.718 2.024 3.576 3.449.859 1.425 1.288 3.183 1.288 5.273 0 3.155-1.526 5.644-4.577 7.468 2.517.95 4.233 2.242 5.148 3.877.916 1.634 1.373 3.477 1.373 5.53 0 4.142-1.515 7.258-4.548 9.348-3.032 2.09-7.542 3.136-13.53 3.136Zm-4.519-17.73v10.205c.648.075 1.354.133 2.116.171.763.038 1.603.057 2.518.057 2.67 0 4.825-.38 6.465-1.14 1.64-.76 2.459-2.166 2.459-4.219 0-1.824-.686-3.125-2.059-3.905-1.373-.779-3.337-1.168-5.892-1.168h-5.607Zm0-6.783h4.348c2.746 0 4.71-.352 5.893-1.055 1.182-.703 1.773-1.834 1.773-3.392 0-1.596-.611-2.717-1.831-3.364-1.22-.645-3.013-.968-5.377-.968-.763 0-1.583.01-2.46.028a26.74 26.74 0 0 0-2.346.143v8.608Zm25.519 24V17.433h26.773V24.9H232.82v7.753h15.847v7.297H232.82v9.52h19.165v7.468h-28.089Zm42.052-39.962c5.95 0 10.507 1.055 13.673 3.164 3.165 2.109 4.748 5.387 4.748 9.834 0 2.773-.639 5.026-1.917 6.755-1.277 1.729-3.118 3.088-5.521 4.076a54.244 54.244 0 0 1 2.518 3.391 97.236 97.236 0 0 1 2.603 3.99 79.02 79.02 0 0 1 2.489 4.334c.8 1.5 1.544 2.974 2.231 4.418H276.76c-.724-1.293-1.459-2.603-2.202-3.934a94.807 94.807 0 0 0-2.289-3.877 107.62 107.62 0 0 0-2.317-3.563 38.633 38.633 0 0 0-2.288-3.05h-4.405V56.94h-8.924V18.003a50.72 50.72 0 0 1 6.035-.798 77.161 77.161 0 0 1 5.578-.228Zm.515 7.582c-.649 0-1.23.019-1.745.057-.515.038-1.001.076-1.459.114v10.717h2.517c3.357 0 5.759-.418 7.208-1.254 1.449-.836 2.175-2.261 2.175-4.276 0-1.938-.735-3.316-2.203-4.133-1.469-.817-3.633-1.225-6.493-1.225Zm21.8-7.126h8.924v39.506h-8.924V17.433Zm40.392 39.506a97.965 97.965 0 0 0-1.401-4.219 372.084 372.084 0 0 1-1.516-4.333h-15.447a391.667 391.667 0 0 1-1.516 4.333 97.965 97.965 0 0 0-1.401 4.219h-9.268a697.915 697.915 0 0 1 4.234-11.801c1.334-3.61 2.64-7.012 3.918-10.204a367.893 367.893 0 0 1 3.776-9.093 199.94 199.94 0 0 1 3.862-8.408h8.524a304.97 304.97 0 0 1 7.637 17.501 411.446 411.446 0 0 1 3.919 10.204 698.339 698.339 0 0 1 4.233 11.8h-9.554Zm-10.698-30.556c-.19.57-.476 1.35-.858 2.337a1721.082 1721.082 0 0 0-2.946 7.696 263.752 263.752 0 0 0-1.802 4.903h11.27c-.61-1.71-1.201-3.345-1.774-4.903a164.75 164.75 0 0 0-1.63-4.276 328.564 328.564 0 0 1-1.344-3.42c-.382-.988-.687-1.767-.916-2.337Zm47.772 30.556a198.068 198.068 0 0 0-8.294-13.397 136.274 136.274 0 0 0-9.497-12.485V56.94h-8.81V17.433h7.266c1.258 1.254 2.65 2.793 4.175 4.617a169.367 169.367 0 0 1 4.663 5.844 201.899 201.899 0 0 1 4.72 6.441 333.38 333.38 0 0 1 4.404 6.414V17.433h8.868v39.506h-7.495ZM145.461 104.998V65.57h26.493v7.453h-17.586v8.25h15.644v7.453h-15.644v16.272h-8.907Zm55.044 0a99.057 99.057 0 0 0-1.398-4.21 371.282 371.282 0 0 1-1.514-4.324h-15.416a390.774 390.774 0 0 1-1.513 4.324 97.657 97.657 0 0 0-1.398 4.21h-9.25a691.112 691.112 0 0 1 4.225-11.777 412.025 412.025 0 0 1 3.911-10.185 363.796 363.796 0 0 1 3.768-9.075 200.728 200.728 0 0 1 3.854-8.391h8.508a316.667 316.667 0 0 1 3.825 8.392 299.312 299.312 0 0 1 3.797 9.074 412.025 412.025 0 0 1 3.911 10.185 708.369 708.369 0 0 1 4.226 11.777h-9.536Zm-10.677-30.496c-.19.57-.476 1.347-.856 2.333a1347.037 1347.037 0 0 0-2.941 7.68c-.59 1.556-1.19 3.187-1.798 4.894h11.248a536.76 536.76 0 0 0-1.771-4.893 168.095 168.095 0 0 0-1.626-4.267c-.515-1.29-.961-2.428-1.342-3.414-.381-.986-.686-1.764-.914-2.333ZM229 105.795c-6.433 0-11.334-1.783-14.703-5.348-3.369-3.566-5.053-8.63-5.053-15.191 0-3.262.514-6.174 1.542-8.734 1.028-2.56 2.436-4.723 4.225-6.486 1.789-1.764 3.921-3.1 6.395-4.011 2.474-.91 5.157-1.366 8.051-1.366 1.674 0 3.197.123 4.567.37 1.371.247 2.569.531 3.597.853 1.028.323 1.885.654 2.569.996.686.342 1.18.607 1.485.797l-2.569 7.168c-1.219-.644-2.637-1.194-4.254-1.65-1.618-.455-3.455-.682-5.51-.682-1.37 0-2.712.227-4.025.682a9.106 9.106 0 0 0-3.483 2.191c-1.009 1.005-1.818 2.304-2.426 3.897-.61 1.594-.914 3.528-.914 5.804 0 1.82.2 3.518.599 5.092.4 1.574 1.047 2.93 1.941 4.068.895 1.138 2.065 2.039 3.512 2.703 1.446.664 3.197.995 5.253.995 1.294 0 2.455-.076 3.483-.227a25.89 25.89 0 0 0 2.741-.541 14.395 14.395 0 0 0 2.112-.71 94.918 94.918 0 0 0 1.656-.74l1.591 4.609.864 2.502c-.59.356-1.292.696-2.108 1.018-.923.365-1.99.708-3.202 1.03-2.284.608-4.929.911-7.936.911Zm41.227-.797a100.545 100.545 0 0 0-1.399-4.21 353.496 353.496 0 0 1-1.513-4.324h-15.416c-.495 1.441-1 2.883-1.513 4.324a96.341 96.341 0 0 0-1.399 4.21h-9.25l.401-1.144a663.02 663.02 0 0 1 3.824-10.633 412.025 412.025 0 0 1 3.911-10.185 359.947 359.947 0 0 1 3.769-9.075 199.442 199.442 0 0 1 3.853-8.391h8.508a316.667 316.667 0 0 1 3.825 8.392 299.312 299.312 0 0 1 3.797 9.074 415.935 415.935 0 0 1 3.912 10.185c1.332 3.603 2.74 7.529 4.225 11.777h-9.535Zm-10.678-30.496c-.19.57-.475 1.347-.856 2.333a1347.037 1347.037 0 0 0-2.94 7.68 255.623 255.623 0 0 0-1.799 4.894h11.248a569.503 569.503 0 0 0-1.77-4.893 167.898 167.898 0 0 0-1.627-4.267c-.514-1.29-.961-2.428-1.342-3.414-.381-.986-.686-1.764-.914-2.333Zm30.037 23.27c.418.038.903.067 1.455.086.552.02 1.208.028 1.97.028 4.453 0 7.756-1.119 9.906-3.356 2.151-2.238 3.226-5.33 3.226-9.274 0-4.135-1.027-7.264-3.083-9.388-2.055-2.125-5.31-3.186-9.763-3.186-.609 0-1.238.009-1.884.028-.648.019-1.257.066-1.827.142v24.92Zm25.75-12.516c0 3.413-.533 6.391-1.599 8.932-1.066 2.541-2.579 4.647-4.539 6.315-1.96 1.669-4.349 2.921-7.166 3.756-2.817.834-5.976 1.251-9.478 1.251-1.598 0-3.464-.066-5.595-.199a45.947 45.947 0 0 1-6.281-.824V66.081a52.82 52.82 0 0 1 6.423-.768c2.227-.132 4.14-.199 5.739-.199 3.388 0 6.461.38 9.221 1.139 2.759.758 5.129 1.953 7.108 3.584 1.979 1.63 3.502 3.717 4.568 6.258 1.066 2.542 1.599 5.595 1.599 9.16Zm3.2 19.742V65.57h26.722v7.453h-17.814v7.738h15.815v7.282h-15.815v9.502h19.127V104.998h-28.035Zm41.17-6.77c1.256 0 2.293-.105 3.112-.313.818-.209 1.475-.493 1.969-.853.495-.36.838-.788 1.028-1.281a4.532 4.532 0 0 0 .286-1.65c0-1.29-.609-2.36-1.827-3.215-1.219-.853-3.312-1.773-6.281-2.759a47.768 47.768 0 0 1-3.883-1.564 14.344 14.344 0 0 1-3.483-2.22 10.641 10.641 0 0 1-2.512-3.242c-.647-1.27-.971-2.817-.971-4.638 0-1.82.343-3.46 1.028-4.92a10.525 10.525 0 0 1 2.912-3.728c1.257-1.024 2.779-1.81 4.568-2.36 1.789-.55 3.807-.826 6.052-.826 2.665 0 4.968.285 6.909.854 1.941.568 3.54 1.195 4.796 1.877l-2.569 6.998a24.452 24.452 0 0 0-3.683-1.508c-1.351-.435-2.978-.654-4.882-.654-2.131 0-3.664.294-4.596.882-.932.588-1.399 1.489-1.399 2.703 0 .72.172 1.327.514 1.82.343.493.828.94 1.456 1.337.628.399 1.352.76 2.17 1.082.818.322 1.722.654 2.711.995 2.056.759 3.845 1.508 5.368 2.248 1.522.74 2.788 1.602 3.797 2.588a9.367 9.367 0 0 1 2.255 3.471c.495 1.327.742 2.94.742 4.836 0 3.68-1.294 6.533-3.882 8.563-2.589 2.029-6.49 3.044-11.705 3.044-1.751 0-3.331-.104-4.739-.313-1.409-.209-2.655-.465-3.74-.768-1.085-.304-2.018-.626-2.798-.967a22.276 22.276 0 0 1-1.969-.968l.111-.312 2.4-6.743c1.18.645 2.637 1.224 4.369 1.735 1.732.513 3.853.769 6.366.769Z" fill="#414141" fill-opacity=".2"/><path d="m242.246 102.836-.864-2.502a916.267 916.267 0 0 0-1.244 3.52 14.144 14.144 0 0 0 2.108-1.018ZM346.571 102.842v-.375l-.111.312a5.5 5.5 0 0 0 .111.063Z" fill="#414141" fill-opacity=".2"/><path fill-rule="evenodd" clip-rule="evenodd" d="M42.53 66.737a1.932 1.932 0 0 1 .37-3.336l6.12-2.67a48.23 48.23 0 0 1 1.394-.583c.603-.243 1.091-.44 1.384-.604.03-.022.061-.043.093-.063a.487.487 0 0 0 .168-.185.812.812 0 0 0 .097-.366v-.008a.75.75 0 0 0-.088-.307.697.697 0 0 0-.194-.247c-.419-.315-1.178-.554-1.837-.761-.328-.103-.638-.2-.955-.322l-.218-.083c-.617-.236-1.247-.476-2.123-.834-1.317-.54-2.524-1.357-3.44-2.418a7.054 7.054 0 0 1-1.653-3.49 1.934 1.934 0 0 1-.051-.442v-6.597c0-5.505.74-6.939 3.882-8.92 2.193-1.381 4.52-2.622 6.77-3.916-6.343-3.648-12.688-7.294-19.032-10.94L22.59 25.758v51.385l44.645 25.686c6.353-3.656 12.702-7.32 19.05-10.983L42.53 66.736Z" fill="#414141" fill-opacity=".2"/><path fill-rule="evenodd" clip-rule="evenodd" d="m33.24 87.74-7.22 4.155 19.007 10.935 7.221-4.154L33.24 87.74Zm36.322-51.666c1.412.815 1.198 2.89-.245 3.47l-6.686 2.916c-1.05.454-1.785.773-2.219 1.085-.327.236-.437.853-.052 1.103 1.212.793 3.711 1.36 5.111 1.932 1.455.595 2.774 1.529 3.716 2.756a6.965 6.965 0 0 1 1.468 4.197c0 .34.008.742.008 1.097v5.306c0 2.619-.132 4.19-.938 5.628-.812 1.447-2.093 2.376-4.38 3.692l-5.331 3.069.108.062c6.3 3.626 12.603 7.249 18.9 10.881l10.647-6.125V25.757L45.027.074l-19.033 10.95c14.52 8.353 29.044 16.702 43.568 25.05ZM29.227 85.479l-7.22 4.12C14.836 85.455 7.668 81.303.504 77.15V25.76L22.21 13.316l7.126 4.1-9.58 5.467-.032.015-.03.015-.031.015-.03.016-.03.017-.03.018-.03.017-.029.019-.029.018-.028.02-.028.02-.028.02-.027.02-.027.021-.026.022-.026.022-.026.022-.026.023-.024.023-.025.024-.024.024-.024.025-.023.025-.023.025-.022.026-.022.027-.021.026-.021.027-.02.027-.02.028-.02.028-.02.029-.018.028-.018.03-.018.029-.017.03-.016.03-.017.03-.015.031-.015.031-.014.031-.014.032-.013.032-.013.032-.013.033-.011.033-.011.033-.01.033-.01.034-.01.033-.008.035-.009.034-.008.034-.006.035-.006.035-.006.035-.004.036-.005.035-.003.036-.004.036-.002.036-.001.037-.002.036V78.26h.004v.032l.002.031v.031l.002.032.002.03.003.032.003.03.005.032.004.03.004.031.006.03.005.031.007.03.006.031.008.03.007.03.009.03.008.03.01.03.01.03.01.03.01.028.012.03.011.029.012.028.013.029.013.028.013.029.014.028.014.027.015.028.015.027.015.027.017.027.017.027.016.026.018.026.018.026.018.026.019.025.019.025.02.025.02.025.02.024.021.024.022.023.022.024.022.023.023.022.023.023.023.022.024.021.025.022.024.02.025.021.026.02.026.02.027.02.027.019.027.018.028.019.028.017.028.018.03.017 5.079 2.922 4.555 2.622Z" fill="#414141" fill-opacity=".2"/><path fill-rule="evenodd" clip-rule="evenodd" d="m82.954 85.476 7.221 4.121c7.17-4.144 14.337-8.296 21.501-12.45v-51.39L67.035.074l-7.126 4.1 32.516 18.707.03.014.032.015.03.016.03.016.031.017.03.017.03.018.028.018.029.019.028.02.028.019.028.02.027.02.027.022.027.021.026.022.025.023.026.023.025.023.024.024.024.024.024.024.023.026.023.025.022.026.022.026.022.027.02.027.021.027.02.028.02.028.019.028.018.029.018.03.018.029.017.03.017.03.016.03.015.03.015.032.015.031.014.032.013.032.013.032.012.032.012.033.01.033.01.034.01.033.01.034.009.034.007.034.008.035.006.035.007.035.005.035.005.035.004.036.003.036.004.036.002.036.001.036.002.037v53.647h-.004v.032l-.001.03-.002.032v.031l-.003.031-.003.031-.003.031-.005.031-.004.031-.004.03-.006.032-.005.03-.007.03-.006.031-.008.03-.007.03-.009.03-.008.03-.01.03-.01.03-.01.029-.01.03-.01.028-.012.03-.012.028-.013.028-.013.029-.013.028-.014.028-.014.028-.015.027-.015.028-.016.027-.016.027-.017.027-.017.026-.017.026-.018.026-.018.025-.019.026-.02.025-.019.025-.02.025-.02.024-.022.023-.02.024-.023.023-.022.023-.023.023-.023.022-.023.022-.024.022-.025.021-.025.021-.025.02-.025.021-.027.02-.026.02-.027.018-.027.019-.028.018-.028.018-.028.017-.03.017-5.079 2.923-4.555 2.621Z" fill="#414141" fill-opacity=".2"/></svg>