<svg width="292" height="100" viewBox="0 0 292 100" fill="none" xmlns="http://www.w3.org/2000/svg">
<path d="M96.2471 98H75.1787L66.8037 76.2119H28.4619L20.5449 98H0L37.3604 2.08008H57.8398L96.2471 98ZM60.5879 60.0508L47.3711 24.457L34.416 60.0508H60.5879ZM151.208 62.7334V46.5723H192.952V84.7832C188.896 88.709 183.007 92.1768 175.286 95.1865C167.609 98.1527 159.823 99.6357 151.928 99.6357C141.895 99.6357 133.149 97.542 125.69 93.3545C118.231 89.1234 112.626 83.1038 108.875 75.2959C105.124 67.4443 103.248 58.9167 103.248 49.7129C103.248 39.724 105.342 30.8473 109.529 23.083C113.717 15.3187 119.845 9.36458 127.915 5.2207C134.065 2.03646 141.721 0.444336 150.881 0.444336C162.789 0.444336 172.08 2.95247 178.754 7.96875C185.471 12.9414 189.79 19.8333 191.709 28.6445L172.473 32.2432C171.12 27.5322 168.569 23.8245 164.817 21.1201C161.11 18.3721 156.464 16.998 150.881 16.998C142.419 16.998 135.679 19.6807 130.663 25.0459C125.69 30.4111 123.204 38.3717 123.204 48.9277C123.204 60.3125 125.734 68.862 130.794 74.5762C135.854 80.2467 142.484 83.082 150.685 83.082C154.741 83.082 158.798 82.2969 162.854 80.7266C166.955 79.1126 170.466 77.1715 173.389 74.9033V62.7334H151.208ZM272.253 62.7334L291.031 68.6875C288.152 79.1562 283.354 86.9424 276.637 92.0459C269.963 97.1058 261.479 99.6357 251.185 99.6357C238.448 99.6357 227.979 95.2956 219.778 86.6152C211.578 77.8913 207.478 65.9831 207.478 50.8906C207.478 34.9258 211.6 22.5378 219.844 13.7266C228.088 4.87174 238.927 0.444336 252.362 0.444336C264.096 0.444336 273.627 3.91211 280.955 10.8477C285.317 14.9479 288.589 20.8366 290.77 28.5137L271.599 33.0938C270.465 28.1211 268.087 24.1953 264.467 21.3164C260.89 18.4375 256.528 16.998 251.381 16.998C244.271 16.998 238.491 19.5498 234.042 24.6533C229.636 29.7568 227.434 38.0228 227.434 49.4512C227.434 61.5775 229.615 70.2142 233.977 75.3613C238.339 80.5085 244.009 83.082 250.988 83.082C256.135 83.082 260.563 81.4463 264.271 78.1748C267.978 74.9033 270.639 69.7562 272.253 62.7334Z" fill="black"/>
</svg>
