<svg width="30" height="37" viewBox="0 0 30 37" fill="none" xmlns="http://www.w3.org/2000/svg">
<path d="M13 35C13 36.1046 13.8954 37 15 37C16.1046 37 17 36.1046 17 35L13 35ZM16.4142 0.585785C15.6332 -0.195263 14.3668 -0.195263 13.5858 0.585785L0.857865 13.3137C0.0768159 14.0948 0.0768158 15.3611 0.857865 16.1421C1.63891 16.9232 2.90524 16.9232 3.68629 16.1421L15 4.82843L26.3137 16.1421C27.0948 16.9232 28.3611 16.9232 29.1421 16.1421C29.9232 15.3611 29.9232 14.0948 29.1421 13.3137L16.4142 0.585785ZM17 35L17 2L13 2L13 35L17 35Z" fill="white"/>
</svg>
