<svg width="111" height="123" viewBox="0 0 111 123" fill="none" xmlns="http://www.w3.org/2000/svg">
<path d="M5 49.8889C5 28.7294 5 18.1468 11.5762 11.5762C18.1524 5.00561 28.7294 5 49.8889 5H61.1111C82.2706 5 92.8532 5 99.4238 11.5762C105.994 18.1524 106 28.7294 106 49.8889V72.3333C106 93.4928 106 104.075 99.4238 110.646C92.8476 117.217 82.2706 117.222 61.1111 117.222H49.8889C28.7294 117.222 18.1468 117.222 11.5762 110.646C5.00561 104.07 5 93.4928 5 72.3333V49.8889Z" stroke="white" stroke-width="10"/>
<path d="M33.0552 49.8896H77.9441M33.0552 72.3341H61.1107" stroke="white" stroke-width="10" stroke-linecap="round"/>
</svg>
