<svg width="122" height="136" viewBox="0 0 122 136" fill="none" xmlns="http://www.w3.org/2000/svg">
<path d="M33 5H19C15.287 5 11.726 6.475 9.1005 9.1005C6.475 11.726 5 15.287 5 19V117C5 120.713 6.475 124.274 9.1005 126.899C11.726 129.525 15.287 131 19 131H103C106.713 131 110.274 129.525 112.899 126.899C115.525 124.274 117 120.713 117 117V19C117 15.287 115.525 11.726 112.899 9.1005C110.274 6.475 106.713 5 103 5H75M33 5V68L54 47L75 68V5M33 5H75" stroke="white" stroke-width="10" stroke-linecap="round" stroke-linejoin="round"/>
</svg>
