<svg width="337" height="158" viewBox="0 0 337 158" fill="none" xmlns="http://www.w3.org/2000/svg">
<path fill-rule="evenodd" clip-rule="evenodd" d="M224.827 0H232.219L247.632 0.000592298C255.938 0.000592298 262.659 6.76688 262.607 15.0797L262.465 37.9462C262.415 46.1863 255.724 52.8393 247.49 52.8393H247.474L262.372 67.7478H251.434L236.536 52.8393H232.219V67.7478H224.827V52.8393V44.9684V7.98827V0ZM232.219 44.9684V7.98827H248.335C252.197 9.92389 254.635 13.8762 254.635 18.1989V33.8531C254.635 38.7228 251.7 43.1117 247.202 44.9684H232.219ZM0 0.147901V7.69187H117.956L89.724 47.3346V60.2038L127.417 7.69187V0.295828L0 0.147901ZM89.724 82.6878H307.457V74.848L99.3319 74.996L127.417 35.649V22.484L89.724 74.996V82.6878ZM0 82.5398V15.2358H7.39077V44.2283L28.2329 15.2358H37.2495L15.0772 46.8909L37.2495 82.5398H28.2329L10.3471 53.6953L7.39077 56.9495V82.5398H0ZM59.468 15.088C51.1972 15.088 44.4925 21.7974 44.4925 30.0739V67.5539C44.4925 75.8304 51.1972 82.5398 59.468 82.5398H67.6536C75.9242 82.5398 82.6289 75.8304 82.6289 67.5539V30.0739C82.6289 21.7974 75.9242 15.088 67.6536 15.088H59.468ZM67.4025 74.996C71.4271 74.996 74.7126 71.7744 74.7948 67.7478V30.176C74.7126 25.9856 71.2948 22.632 67.1067 22.632H60.0132C55.8496 22.632 52.4745 26.0095 52.4745 30.176V67.7478C52.4745 71.7508 55.7173 74.996 59.7175 74.996H67.4025ZM134.955 0H142.05V44.968H164.814V0H172.205V67.7478H164.814V52.6598H142.05V67.7478H134.955V0ZM222.488 90.2522C214.217 90.2522 207.513 96.9616 207.513 105.238V142.718C207.513 150.995 214.217 157.704 222.488 157.704H230.675C238.945 157.704 245.65 150.995 245.65 142.718V105.238C245.65 96.9616 238.945 90.2522 230.675 90.2522H222.488ZM237.816 142.912C237.733 146.939 234.448 150.16 230.422 150.16H222.738C218.738 150.16 215.494 146.915 215.494 142.912V105.34C215.494 101.174 218.87 97.7962 223.033 97.7962H230.128C234.315 97.7962 237.733 101.15 237.816 105.34V142.912ZM253.593 105.238C253.593 96.9616 260.297 90.2522 268.568 90.2522H276.753C285.023 90.2522 291.728 96.9616 291.728 105.238V142.718C291.728 150.995 285.023 157.704 276.753 157.704H268.568C260.297 157.704 253.593 150.995 253.593 142.718V105.238ZM276.503 150.16C280.527 150.16 283.813 146.939 283.894 142.912V105.34C283.813 101.15 280.395 97.7962 276.206 97.7962H269.113C264.95 97.7962 261.574 101.174 261.574 105.34V142.912C261.574 146.915 264.816 150.16 268.818 150.16H276.503ZM169.459 90.2522H162.364V158H169.459V142.912H192.222V158H199.614V90.2522H192.222V135.22H169.459V90.2522ZM307.491 14.2942C307.083 6.38269 300.544 0.093583 292.536 0.093583H284.646C276.638 0.093583 270.077 6.38269 269.669 14.2942V67.5456H277.357V52.4578H299.825V67.5456H307.511V14.2942H307.491ZM292.431 7.63757C296.455 7.63757 299.742 10.8579 299.825 14.8838V44.7659H277.357V43.1386V14.8857C277.521 10.8357 280.85 7.63757 284.9 7.63757H292.431ZM187.485 0.093583H180.094V52.5595C180.094 60.8362 186.798 67.5456 195.069 67.5456H202.368C210.638 67.5456 217.343 60.8362 217.343 52.5595V0.0936323H209.953L210.101 52.7536C210.018 56.7803 206.733 60.0016 202.707 60.0016H195.029C190.979 60.0016 187.65 56.8035 187.485 52.7536V0.093583ZM87.6489 127.66L95.2185 127.659C99.2652 127.824 102.461 131.156 102.461 135.209V142.894C102.461 146.923 99.2419 150.21 95.2185 150.293L72.7003 150.146V157.541H95.0246C103.295 157.541 109.999 150.831 109.999 142.554V135.25C109.999 126.972 103.295 120.262 95.0246 120.262H87.5479V120.276C83.5443 120.06 80.1091 116.733 80.1091 112.713V105.028C80.1091 100.999 83.3279 97.7119 87.3513 97.629L109.87 97.7766V90.3812H87.5452C79.2752 90.3812 72.5712 97.0912 72.5712 105.368V112.673C72.5712 120.95 79.3789 127.66 87.6489 127.66ZM124.955 105.028V111.508H124.956V135.768H124.955V142.956C124.955 146.985 128.174 150.272 132.197 150.355L154.587 150.207V157.603H132.391C124.121 157.603 117.417 150.893 117.417 142.616V135.768V135.312V112.673V111.508V105.368C117.417 97.0912 124.121 90.3812 132.391 90.3812H154.587V97.7766L132.197 97.629C128.174 97.7119 124.955 100.999 124.955 105.028ZM299.83 89.7747H306.901V149.819H337V157.502H306.901H299.83V149.819V89.7747Z" fill="white"/>
</svg>
