<svg width="376" height="106" viewBox="0 0 376 106" fill="none" xmlns="http://www.w3.org/2000/svg">
<path fill-rule="evenodd" clip-rule="evenodd" d="M157.58 50.1546C158.838 50.1546 159.878 50.0506 160.698 49.8411C161.518 49.6323 162.176 49.347 162.672 48.9861C163.168 48.6252 163.511 48.1976 163.702 47.7037C163.892 47.2096 163.987 46.6582 163.987 46.0503C163.987 44.7578 163.377 43.6848 162.157 42.8292C160.937 41.9742 158.838 41.0527 155.864 40.0646C154.567 39.6088 153.271 39.0858 151.974 38.4969C150.677 37.908 149.514 37.167 148.484 36.2738C147.454 35.3806 146.615 34.2976 145.967 33.0244C145.318 31.7511 144.994 30.2025 144.994 28.3778C144.994 26.5539 145.337 24.9104 146.024 23.4469C146.71 21.9838 147.683 20.7395 148.941 19.7133C150.2 18.687 151.726 17.8985 153.518 17.3472C155.31 16.7965 157.332 16.5205 159.582 16.5205C162.252 16.5205 164.56 16.8058 166.504 17.3755C168.45 17.946 170.052 18.573 171.31 19.2567L168.735 26.2687C167.63 25.6989 166.4 25.195 165.046 24.7583C163.692 24.3209 162.062 24.1029 160.155 24.1029C158.019 24.1029 156.484 24.3973 155.549 24.9862C154.614 25.5751 154.148 26.4782 154.148 27.6941C154.148 28.4161 154.319 29.024 154.663 29.5181C155.006 30.0121 155.492 30.4588 156.121 30.8579C156.75 31.2571 157.475 31.618 158.295 31.9408C159.115 32.2642 160.021 32.5969 161.013 32.9388C163.072 33.6989 164.864 34.4492 166.39 35.1902C167.916 35.9319 169.184 36.7961 170.194 37.7842C171.205 38.7723 171.959 39.9315 172.454 41.2615C172.95 42.5921 173.198 44.2072 173.198 46.1076C173.198 49.7937 171.901 52.6538 169.308 54.6872C166.715 56.72 162.805 57.737 157.58 57.737C155.825 57.737 154.243 57.6323 152.832 57.4235C151.42 57.214 150.172 56.9578 149.085 56.6534C147.998 56.3498 147.063 56.0264 146.281 55.6845C145.499 55.3426 144.842 55.0192 144.308 54.7156L146.825 47.6463C148.007 48.2925 149.466 48.8722 151.202 49.3853C152.937 49.8984 155.063 50.1546 157.58 50.1546ZM175.834 17.4328H184.758V56.9387H175.834V17.4328ZM202.896 57.4518C200.723 57.4518 198.558 57.3853 196.403 57.2522C194.249 57.1191 192.008 56.8056 189.682 56.3115V18.0027C191.512 17.6608 193.514 17.4045 195.688 17.2332C197.862 17.062 199.883 16.9771 201.752 16.9771C204.269 16.9771 206.586 17.1575 208.703 17.5184C210.82 17.8795 212.641 18.4966 214.166 19.3714C215.692 20.2455 216.884 21.3949 217.742 22.8197C218.601 24.2451 219.03 26.0026 219.03 28.0933C219.03 31.2479 217.504 33.7371 214.453 35.5611C216.97 36.5109 218.686 37.8033 219.601 39.4376C220.517 41.0718 220.974 42.9149 220.974 44.9673C220.974 49.1099 219.459 52.2263 216.426 54.3164C213.394 56.4064 208.884 57.4518 202.896 57.4518ZM198.377 39.7228V49.9268C199.025 50.0025 199.731 50.0598 200.493 50.098C201.256 50.1355 202.096 50.1546 203.011 50.1546C205.681 50.1546 207.836 49.7746 209.476 49.0144C211.116 48.2543 211.935 46.8486 211.935 44.7961C211.935 42.9721 211.249 41.6706 209.876 40.8913C208.503 40.112 206.539 39.7228 203.984 39.7228H198.377ZM198.377 32.9388H202.725C205.471 32.9388 207.435 32.587 208.618 31.8842C209.8 31.1813 210.391 30.0503 210.391 28.4925C210.391 26.8958 209.78 25.7747 208.56 25.1285C207.34 24.483 205.547 24.1596 203.183 24.1596C202.42 24.1596 201.6 24.1698 200.723 24.1878C199.846 24.207 199.064 24.2544 198.377 24.3308V32.9388ZM223.896 56.9387V17.4328H250.669V24.9005H232.82V32.6535H248.667V39.9507H232.82V49.4709H251.985V56.9387H223.896ZM265.948 16.9771C271.898 16.9771 276.455 18.0316 279.621 20.1408C282.786 22.2499 284.369 25.5277 284.369 29.9746C284.369 32.7484 283.73 35.0005 282.452 36.7296C281.175 38.4587 279.334 39.8176 276.931 40.8057C277.733 41.7937 278.572 42.9247 279.449 44.1973C280.326 45.4706 281.194 46.8012 282.052 48.1878C282.91 49.575 283.739 51.0195 284.541 52.5207C285.341 54.0219 286.085 55.4948 286.772 56.9387H276.76C276.036 55.6462 275.301 54.3355 274.558 53.0049C273.814 51.6749 273.051 50.3826 272.269 49.1284C271.487 47.8749 270.715 46.6872 269.952 45.5655C269.189 44.4443 268.427 43.428 267.664 42.5157H263.259V56.9387H254.335V18.0027C256.279 17.6225 258.291 17.3571 260.37 17.2049C262.448 17.0527 264.308 16.9771 265.948 16.9771ZM266.463 24.5587C265.814 24.5587 265.233 24.5778 264.718 24.616C264.203 24.6535 263.717 24.6918 263.259 24.7299V35.4471H265.776C269.133 35.4471 271.535 35.0288 272.984 34.1929C274.433 33.3571 275.159 31.9316 275.159 29.9173C275.159 27.9794 274.424 26.6013 272.956 25.7845C271.487 24.9671 269.323 24.5587 266.463 24.5587ZM288.263 17.4328H297.187V56.9387H288.263V17.4328ZM328.655 56.9387C328.236 55.5706 327.769 54.1642 327.254 52.7203C326.739 51.2758 326.233 49.8319 325.738 48.3874H310.291C309.795 49.8319 309.29 51.2758 308.775 52.7203C308.26 54.1642 307.793 55.5706 307.374 56.9387H298.106C299.594 52.6821 301.004 48.749 302.34 45.138C303.674 41.5276 304.98 38.1261 306.258 34.9339C307.536 31.7418 308.795 28.7105 310.034 25.8412C311.273 22.9719 312.561 20.1691 313.896 17.4328H322.42C323.716 20.1691 324.994 22.9719 326.253 25.8412C327.511 28.7105 328.779 31.7418 330.057 34.9339C331.335 38.1261 332.641 41.5276 333.976 45.138C335.311 48.749 336.722 52.6821 338.209 56.9387H328.655ZM317.957 26.3827C317.767 26.9531 317.481 27.7323 317.099 28.7204C316.718 29.7084 316.279 30.8487 315.784 32.1404C315.287 33.4327 314.744 34.8582 314.153 36.4161C313.562 37.9745 312.961 39.6088 312.351 41.3188H323.621C323.011 39.6088 322.42 37.9745 321.847 36.4161C321.276 34.8582 320.732 33.4327 320.217 32.1404C319.702 30.8487 319.254 29.7084 318.873 28.7204C318.491 27.7323 318.186 26.9531 317.957 26.3827ZM365.729 56.9387C363.175 52.416 360.41 47.9506 357.435 43.5419C354.46 39.1332 351.294 34.9722 347.938 31.0575V56.9387H339.128V17.4328H346.394C347.652 18.687 349.044 20.2264 350.569 22.0504C352.095 23.8743 353.649 25.8221 355.232 27.8937C356.815 29.9647 358.388 32.112 359.952 34.3352C361.515 36.559 362.984 38.6965 364.356 40.749V17.4328H373.224V56.9387H365.729Z" fill="#414141" fill-opacity="0.2"/>
<path fill-rule="evenodd" clip-rule="evenodd" d="M145.461 104.998V65.5695H171.954V73.0228H154.368V81.273H170.012V88.7263H154.368V104.998H145.461ZM200.505 104.998C200.087 103.633 199.62 102.229 199.107 100.788C198.592 99.3466 198.088 97.9054 197.593 96.4641H182.177C181.682 97.9054 181.178 99.3466 180.664 100.788C180.15 102.229 179.684 103.633 179.266 104.998H170.016C171.5 100.75 172.908 96.8244 174.241 93.2206C175.573 89.6176 176.877 86.2226 178.152 83.0364C179.427 79.8503 180.683 76.8255 181.92 73.9615C183.157 71.098 184.442 68.3005 185.774 65.5695H194.282C195.576 68.3005 196.851 71.098 198.107 73.9615C199.364 76.8255 200.629 79.8503 201.904 83.0364C203.179 86.2226 204.483 89.6176 205.815 93.2206C207.147 96.8244 208.556 100.75 210.041 104.998H200.505ZM189.828 74.5022C189.638 75.0714 189.352 75.8487 188.972 76.8347C188.591 77.8214 188.153 78.959 187.659 80.2487C187.164 81.5385 186.621 82.9606 186.031 84.5159C185.441 86.071 184.841 87.702 184.233 89.4087H195.481C194.872 87.702 194.282 86.071 193.71 84.5159C193.14 82.9606 192.597 81.5385 192.084 80.2487C191.569 78.959 191.123 77.8214 190.742 76.8347C190.361 75.8487 190.056 75.0714 189.828 74.5022ZM229 105.795C222.567 105.795 217.666 104.012 214.297 100.447C210.928 96.8811 209.244 91.8176 209.244 85.2556C209.244 81.9937 209.758 79.0822 210.786 76.5218C211.814 73.9615 213.222 71.7995 215.011 70.0362C216.8 68.2722 218.932 66.9351 221.406 66.0247C223.88 65.1144 226.563 64.6592 229.457 64.6592C231.131 64.6592 232.654 64.7824 234.024 65.0294C235.395 65.2757 236.593 65.5603 237.621 65.8824C238.649 66.2052 239.506 66.5365 240.19 66.8784C240.876 67.2196 241.37 67.4851 241.675 67.6748L239.106 74.8434C237.887 74.1986 236.469 73.6486 234.852 73.1933C233.234 72.7382 231.397 72.511 229.342 72.511C227.972 72.511 226.63 72.7382 225.317 73.1933C224.004 73.6486 222.842 74.379 221.834 75.3842C220.825 76.3894 220.016 77.6883 219.408 79.2811C218.798 80.8746 218.494 82.8091 218.494 85.085C218.494 86.9056 218.694 88.6032 219.093 90.1767C219.493 91.751 220.14 93.1073 221.034 94.2449C221.929 95.3832 223.099 96.2837 224.546 96.9476C225.992 97.6116 227.743 97.9429 229.799 97.9429C231.093 97.9429 232.254 97.8671 233.282 97.7156C234.309 97.5642 235.223 97.3837 236.023 97.1749C236.822 96.9667 237.526 96.7295 238.135 96.4641C238.744 96.1986 239.296 95.9516 239.791 95.7244L241.382 100.334L242.246 102.836C241.656 103.192 240.954 103.532 240.138 103.854C239.215 104.219 238.148 104.562 236.936 104.884C234.652 105.492 232.007 105.795 229 105.795ZM270.227 104.998C269.808 103.633 269.341 102.229 268.828 100.788C268.313 99.3466 267.809 97.9054 267.315 96.4641H251.899C251.404 97.9054 250.899 99.3466 250.386 100.788C249.871 102.229 249.405 103.633 248.987 104.998H239.737C239.871 104.614 240.005 104.233 240.138 103.854C240.559 102.655 240.974 101.481 241.382 100.334C242.272 97.838 243.132 95.4668 243.962 93.2206C245.294 89.6176 246.598 86.2226 247.873 83.0364C249.148 79.8503 250.404 76.8255 251.642 73.9615C252.878 71.098 254.163 68.3005 255.495 65.5695H264.003C265.297 68.3005 266.572 71.098 267.828 73.9615C269.085 76.8255 270.35 79.8503 271.625 83.0364C272.9 86.2226 274.204 89.6176 275.537 93.2206C276.869 96.8244 278.277 100.75 279.762 104.998H270.227ZM259.549 74.5022C259.359 75.0714 259.074 75.8487 258.693 76.8347C258.312 77.8214 257.874 78.959 257.38 80.2487C256.885 81.5385 256.342 82.9606 255.753 84.5159C255.162 86.071 254.563 87.702 253.954 89.4087H265.202C264.593 87.702 264.003 86.071 263.432 84.5159C262.861 82.9606 262.319 81.5385 261.805 80.2487C261.291 78.959 260.844 77.8214 260.463 76.8347C260.082 75.8487 259.777 75.0714 259.549 74.5022ZM289.586 97.7723C290.004 97.8105 290.489 97.8388 291.041 97.8579C291.593 97.8771 292.249 97.8862 293.011 97.8862C297.464 97.8862 300.767 96.7672 302.917 94.5295C305.068 92.2919 306.143 89.2006 306.143 85.2556C306.143 81.1209 305.116 77.9921 303.06 75.8677C301.005 73.7434 297.75 72.6816 293.297 72.6816C292.688 72.6816 292.059 72.6908 291.413 72.7099C290.765 72.729 290.156 72.7764 289.586 72.8522V97.7723ZM315.336 85.2556C315.336 88.669 314.803 91.647 313.737 94.1882C312.671 96.7295 311.158 98.8348 309.198 100.503C307.238 102.172 304.849 103.424 302.032 104.259C299.215 105.093 296.056 105.51 292.554 105.51C290.956 105.51 289.09 105.444 286.959 105.311C284.827 105.179 282.734 104.903 280.678 104.487V66.0814C282.734 65.7026 284.875 65.4463 287.101 65.3133C289.328 65.1809 291.241 65.1144 292.84 65.1144C296.228 65.1144 299.301 65.4937 302.061 66.2526C304.82 67.0107 307.19 68.2057 309.169 69.8366C311.148 71.4676 312.671 73.5537 313.737 76.0949C314.803 78.6369 315.336 81.69 315.336 85.2556ZM318.536 104.998V65.5695H345.258V73.0228H327.444V80.7606H343.259V88.0433H327.444V97.545H346.571V102.467V102.842V104.998H318.536ZM359.706 98.2275C360.962 98.2275 361.999 98.1233 362.818 97.9146C363.636 97.7064 364.293 97.4219 364.787 97.0616C365.282 96.7012 365.625 96.2744 365.815 95.781C366.006 95.2883 366.101 94.7383 366.101 94.131C366.101 92.8419 365.492 91.7702 364.274 90.9165C363.055 90.0634 360.962 89.1432 357.993 88.1572C356.699 87.702 355.405 87.1803 354.11 86.5928C352.816 86.0045 351.655 85.2648 350.627 84.3736C349.6 83.4824 348.763 82.4014 348.115 81.1308C347.468 79.8602 347.144 78.3141 347.144 76.4935C347.144 74.6728 347.487 73.0326 348.172 71.5723C348.858 70.1119 349.828 68.8697 351.084 67.8454C352.341 66.821 353.863 66.0346 355.652 65.4846C357.441 64.9346 359.459 64.6592 361.704 64.6592C364.369 64.6592 366.672 64.9438 368.613 65.5129C370.554 66.0814 372.153 66.7078 373.409 67.3902L370.84 74.3883C369.736 73.8192 368.508 73.3173 367.157 72.8805C365.806 72.4445 364.179 72.2264 362.275 72.2264C360.144 72.2264 358.611 72.5201 357.679 73.1084C356.747 73.696 356.28 74.597 356.28 75.811C356.28 76.5317 356.452 77.1383 356.794 77.6317C357.137 78.1244 357.622 78.5704 358.25 78.9682C358.878 79.3668 359.602 79.7271 360.42 80.0499C361.238 80.3719 362.142 80.704 363.131 81.0451C365.187 81.804 366.976 82.5529 368.499 83.2926C370.021 84.0324 371.287 84.8953 372.296 85.8813C373.305 86.8674 374.056 88.0242 374.551 89.3521C375.046 90.6794 375.293 92.2919 375.293 94.1882C375.293 97.8671 373.999 100.721 371.411 102.751C368.822 104.78 364.921 105.795 359.706 105.795C357.955 105.795 356.375 105.691 354.967 105.482C353.558 105.273 352.312 105.017 351.227 104.714C350.142 104.41 349.209 104.088 348.429 103.747C347.702 103.428 347.083 103.127 346.571 102.842C346.533 102.821 346.496 102.8 346.46 102.779L346.571 102.467L348.971 95.7244C350.151 96.3692 351.608 96.9476 353.34 97.4594C355.072 97.9719 357.193 98.2275 359.706 98.2275Z" fill="#414141" fill-opacity="0.2"/>
<path d="M242.246 102.836L241.382 100.334C240.974 101.481 240.559 102.655 240.138 103.854C240.954 103.532 241.656 103.192 242.246 102.836Z" fill="#414141" fill-opacity="0.2"/>
<path d="M346.571 102.842V102.467L346.46 102.779C346.496 102.8 346.533 102.821 346.571 102.842Z" fill="#414141" fill-opacity="0.2"/>
<path fill-rule="evenodd" clip-rule="evenodd" d="M42.5308 66.7368C42.2618 66.5414 42.0394 66.2741 41.8968 65.9478C41.4685 64.9683 41.9179 63.8279 42.9008 63.401L49.0203 60.7312C49.6593 60.4526 50.0572 60.2917 50.414 60.1479C51.0171 59.9049 51.5054 59.7076 51.7981 59.5436C51.8283 59.5222 51.8592 59.501 51.891 59.4809C51.9634 59.4353 52.0198 59.3692 52.0588 59.2958C52.1229 59.1755 52.1549 59.0469 52.1564 58.9296V58.9224C52.1554 58.8337 52.1225 58.7256 52.0677 58.6152C52.0165 58.5122 51.9491 58.4242 51.8745 58.3683C51.4554 58.0531 50.6962 57.8142 50.0374 57.607C49.7087 57.5037 49.3987 57.4061 49.082 57.2852L48.8642 57.2019C48.2465 56.9661 47.617 56.7258 46.7407 56.3678C45.4237 55.8289 44.2167 55.0115 43.3004 53.9496C42.4628 52.9785 41.869 51.8076 41.6476 50.4595C41.6144 50.3177 41.597 50.1699 41.597 50.0182V43.4211C41.597 37.9165 42.3364 36.482 45.4791 34.5008C47.6715 33.1196 49.9997 31.8788 52.2489 30.5853C45.906 26.9375 39.561 23.2908 33.2168 19.6445L22.5908 25.7576V77.143L67.2364 102.829C73.589 99.1731 79.9376 95.5095 86.2854 91.8455L42.5308 66.7368Z" fill="#414141" fill-opacity="0.2"/>
<path fill-rule="evenodd" clip-rule="evenodd" d="M33.2398 87.7401L26.0203 91.8948L45.0273 102.83L52.248 98.6761L33.2398 87.7401ZM69.5621 36.0742C70.9744 36.8892 70.7605 38.964 69.3174 39.5435L62.6307 42.4596C61.5806 42.9142 60.8458 43.2331 60.4123 43.5453C60.0848 43.7814 59.9752 44.3977 60.3604 44.6482C61.5716 45.4414 64.0714 46.0073 65.4711 46.5797C66.926 47.1746 68.2451 48.1085 69.187 49.3355C70.0777 50.4952 70.6302 51.9064 70.6553 53.5329C70.6553 53.8726 70.6626 54.2751 70.6626 54.63V59.9365C70.6626 62.555 70.5314 64.1255 69.7249 65.5636C68.913 67.0109 67.632 67.9402 65.3445 69.2562L60.0139 72.3249L60.122 72.387C66.4218 76.0133 72.7253 79.6357 79.0216 83.2683L89.6687 77.1427V25.757C74.7882 17.1962 59.9075 8.63512 45.0273 0.0742188L25.9937 11.0248C40.5146 19.377 55.0384 27.7262 69.5621 36.0742Z" fill="#414141" fill-opacity="0.2"/>
<path fill-rule="evenodd" clip-rule="evenodd" d="M29.2274 85.4787L22.0063 89.5994C14.8362 85.455 7.66902 81.3035 0.504883 77.1491V25.7593L22.2109 13.3164L29.337 17.4161L19.7566 22.883L19.7254 22.8976L19.6946 22.9128L19.6637 22.9283L19.6335 22.9444L19.6033 22.9612L19.5735 22.9785L19.5442 22.9964L19.5151 23.0146L19.4865 23.0331L19.458 23.0525L19.4301 23.0723L19.4023 23.0922L19.3749 23.1132L19.348 23.1341L19.3217 23.1556L19.2956 23.1777L19.2698 23.2L19.2444 23.223L19.2195 23.2462L19.1949 23.2702L19.1709 23.2944L19.1473 23.3188L19.1239 23.3439L19.1011 23.3693L19.079 23.3952L19.0571 23.4216L19.0355 23.4481L19.0146 23.4749L18.9941 23.5024L18.9741 23.5299L18.9546 23.5582L18.9354 23.5866L18.9168 23.6153L18.8989 23.6445L18.8812 23.6738L18.8641 23.7036L18.8477 23.7338L18.8315 23.7643L18.8159 23.795L18.8013 23.8261L18.7865 23.8573L18.7728 23.889L18.7596 23.921L18.7467 23.9535L18.7344 23.9858L18.7227 24.0186L18.712 24.0517L18.7014 24.0852L18.6918 24.1186L18.6822 24.1524L18.6736 24.1867L18.6651 24.2207L18.6575 24.2554L18.651 24.2903L18.6445 24.3252L18.6391 24.3604L18.6346 24.3957L18.6302 24.4312L18.6268 24.467L18.6234 24.5031L18.621 24.5393L18.6197 24.5757L18.6185 24.6121L18.6182 24.6488L18.6179 78.2598H18.6223L18.6225 78.2911L18.6235 78.3221L18.6247 78.3534L18.626 78.3845L18.6284 78.4155L18.6308 78.4466L18.6341 78.4776L18.6385 78.5087L18.643 78.5394L18.6474 78.5702L18.6529 78.6009L18.6582 78.6314L18.6647 78.6618L18.6712 78.6923L18.6787 78.7225L18.6862 78.7526L18.6948 78.7827L18.7033 78.8127L18.7129 78.8422L18.7225 78.8717L18.7332 78.9013L18.7438 78.9305L18.7548 78.9595L18.7662 78.9885L18.7782 79.0174L18.7907 79.0458L18.8036 79.0741L18.8169 79.1025L18.8309 79.1306L18.845 79.1584L18.86 79.1858L18.8749 79.2133L18.8905 79.2401L18.9067 79.2673L18.9235 79.2939L18.9403 79.3201L18.9579 79.3464L18.9757 79.3723L18.9942 79.3977L19.0128 79.4231L19.032 79.4482L19.0517 79.4732L19.0718 79.4978L19.0925 79.522L19.1134 79.5458L19.1347 79.5694L19.1566 79.5927L19.1787 79.6156L19.2015 79.6384L19.2246 79.6608L19.2483 79.6826L19.2722 79.7044L19.2965 79.7256L19.3214 79.7464L19.3465 79.767L19.3723 79.7874L19.3983 79.807L19.4247 79.8264L19.4517 79.8456L19.4789 79.8644L19.5068 79.8826L19.5346 79.9005L19.5631 79.9177L19.5922 79.9348L24.6718 82.8572L29.2274 85.4787Z" fill="#414141" fill-opacity="0.2"/>
<path fill-rule="evenodd" clip-rule="evenodd" d="M82.9539 85.4763L90.175 89.597C97.3451 85.4527 104.512 81.3012 111.676 77.1468V25.757L67.0347 0.0742188L59.9087 4.17405L92.4246 22.8806L92.4557 22.8952L92.4866 22.9104L92.5175 22.926L92.5478 22.9421L92.578 22.9589L92.6076 22.9762L92.6371 22.994L92.666 23.0122L92.6948 23.0308L92.7233 23.0502L92.7512 23.0699L92.779 23.0899L92.8063 23.1109L92.8332 23.1317L92.8596 23.1532L92.8856 23.1753L92.9114 23.1976L92.9369 23.2207L92.9618 23.2439L92.9864 23.2679L93.0103 23.292L93.034 23.3165L93.0574 23.3416L93.0802 23.367L93.1023 23.3929L93.1241 23.4192L93.1458 23.4458L93.1667 23.4726L93.1871 23.5001L93.2072 23.5276L93.2266 23.5559L93.2458 23.5843L93.2644 23.613L93.2823 23.6422L93.3001 23.6715L93.3171 23.7013L93.3336 23.7314L93.3498 23.762L93.3654 23.7927L93.38 23.8238L93.3947 23.855L93.4085 23.8867L93.4216 23.9187L93.4345 23.9512L93.4468 23.9834L93.4586 24.0163L93.4693 24.0494L93.4799 24.0829L93.4895 24.1163L93.4991 24.15L93.5077 24.1844L93.5152 24.2184L93.5227 24.2531L93.5292 24.2879L93.5357 24.3229L93.5412 24.3581L93.5455 24.3933L93.55 24.4289L93.5533 24.4647L93.5567 24.5008L93.5591 24.537L93.5604 24.5734L93.5616 24.6098L93.562 24.6465L93.5623 78.2574H93.5578L93.5575 78.2888L93.5566 78.3197L93.5555 78.3511L93.5541 78.3821L93.5517 78.4132L93.5494 78.4443L93.546 78.4753L93.5415 78.5064L93.5371 78.5371L93.5327 78.5678L93.5272 78.5986L93.5217 78.629L93.5152 78.6595L93.5087 78.69L93.5012 78.7201L93.4936 78.7503L93.4851 78.7804L93.4765 78.8103L93.4669 78.8398L93.4573 78.8693L93.4477 78.899L93.4371 78.9282L93.4261 78.9572L93.4146 78.9862L93.4026 79.0151L93.39 79.0434L93.3771 79.0718L93.364 79.1002L93.3499 79.1283L93.3359 79.156L93.3209 79.1835L93.3058 79.2109L93.2903 79.2378L93.2742 79.2649L93.2573 79.2916L93.2405 79.3178L93.2229 79.3441L93.2052 79.37L93.1866 79.3954L93.1681 79.4208L93.1489 79.4459L93.1291 79.4709L93.1091 79.4955L93.0884 79.5196L93.0674 79.5435L93.0461 79.567L93.0242 79.5904L93.002 79.6133L92.9793 79.636L92.9562 79.6584L92.9326 79.6802L92.9086 79.702L92.8843 79.7232L92.8595 79.7441L92.8344 79.7647L92.8086 79.785L92.7824 79.8047L92.7561 79.8241L92.7292 79.8432L92.7019 79.862L92.674 79.8802L92.6461 79.8981L92.6178 79.9154L92.5887 79.9325L87.5091 82.8548L82.9539 85.4763Z" fill="#414141" fill-opacity="0.2"/>
</svg>
