<svg width="583" height="175" viewBox="0 0 583 175" fill="none" xmlns="http://www.w3.org/2000/svg">
<path fill-rule="evenodd" clip-rule="evenodd" d="M221.118 82.8997C223.21 82.8997 224.939 82.7275 226.301 82.3808C227.664 82.0351 228.758 81.5629 229.582 80.9655C230.406 80.368 230.976 79.6603 231.294 78.8426C231.61 78.0247 231.769 77.1121 231.769 76.1058C231.769 73.9664 230.755 72.1903 228.726 70.7739C226.698 69.3586 223.21 67.8332 218.266 66.1977C216.11 65.4431 213.955 64.5774 211.8 63.6026C209.644 62.6278 207.711 61.4013 205.999 59.9227C204.287 58.4442 202.893 56.6516 201.815 54.544C200.737 52.4363 200.199 49.873 200.199 46.8526C200.199 43.8334 200.769 41.1129 201.909 38.6903C203.051 36.2685 204.667 34.2088 206.759 32.5101C208.852 30.8113 211.388 29.5061 214.367 28.5936C217.346 27.6819 220.706 27.2251 224.446 27.2251C228.884 27.2251 232.72 27.6973 235.953 28.6404C239.186 29.5847 241.849 30.6227 243.941 31.7544L239.661 43.3612C237.823 42.4181 235.779 41.584 233.528 40.8612C231.277 40.1371 228.568 39.7762 225.398 39.7762C221.848 39.7762 219.296 40.2636 217.743 41.2383C216.189 42.2131 215.413 43.7081 215.413 45.7208C215.413 46.9159 215.698 47.9222 216.269 48.74C216.84 49.5577 217.647 50.2971 218.693 50.9579C219.739 51.6186 220.945 52.2161 222.307 52.7504C223.671 53.2857 225.176 53.8363 226.824 54.4023C230.248 55.6604 233.227 56.9025 235.763 58.129C238.299 59.3567 240.406 60.7874 242.086 62.4229C243.766 64.0585 245.019 65.9774 245.843 68.1789C246.667 70.3814 247.079 73.0549 247.079 76.2006C247.079 82.3023 244.923 87.0365 240.613 90.4024C236.302 93.7673 229.804 95.4509 221.118 95.4509C218.202 95.4509 215.572 95.2774 213.226 94.9319C210.88 94.585 208.804 94.161 206.998 93.6572C205.19 93.1546 203.638 92.6193 202.338 92.0533C201.038 91.4874 199.945 90.952 199.057 90.4494L203.241 78.7476C205.207 79.8174 207.632 80.7769 210.516 81.6262C213.401 82.4756 216.934 82.8997 221.118 82.8997ZM251.46 28.7352H266.293V94.1294H251.46V28.7352ZM296.444 94.9787C292.831 94.9787 289.232 94.8686 285.65 94.6483C282.069 94.4281 278.344 93.9091 274.478 93.0912V29.6785C277.52 29.1126 280.849 28.6884 284.462 28.4048C288.075 28.1214 291.435 27.9808 294.541 27.9808C298.726 27.9808 302.577 28.2796 306.095 28.877C309.614 29.4746 312.642 30.4962 315.176 31.9442C317.712 33.3911 319.693 35.2938 321.12 37.6522C322.547 40.0116 323.26 42.9209 323.26 46.3816C323.26 51.6033 320.724 55.7238 315.652 58.743C319.836 60.3152 322.689 62.4546 324.211 65.1597C325.732 67.8649 326.493 70.9157 326.493 74.3131C326.493 81.1704 323.973 86.329 318.933 89.7887C313.893 93.2483 306.396 94.9787 296.444 94.9787ZM288.931 65.6319V82.5225C290.009 82.6478 291.182 82.7428 292.449 82.8059C293.717 82.8681 295.113 82.8997 296.634 82.8997C301.071 82.8997 304.654 82.2706 307.38 81.0123C310.106 79.7541 311.468 77.4273 311.468 74.0297C311.468 71.0105 310.328 68.856 308.045 67.5662C305.762 66.2761 302.498 65.6319 298.251 65.6319H288.931ZM288.931 54.4023H296.159C300.723 54.4023 303.988 53.82 305.953 52.6566C307.918 51.4932 308.9 49.621 308.9 47.0424C308.9 44.3993 307.886 42.5435 305.858 41.4739C303.829 40.4053 300.849 39.87 296.919 39.87C295.651 39.87 294.289 39.887 292.831 39.9168C291.373 39.9485 290.073 40.027 288.931 40.1534V54.4023ZM331.349 94.1294V28.7352H375.852V41.0966H346.183V53.9301H372.523V66.0091H346.183V81.768H378.039V94.1294H331.349ZM401.248 27.9808C411.138 27.9808 418.713 29.7263 423.975 33.2177C429.237 36.7091 431.867 42.1347 431.867 49.4956C431.867 54.0872 430.806 57.815 428.682 60.6772C426.558 63.5395 423.499 65.7888 419.505 67.4244C420.837 69.0599 422.231 70.9321 423.689 73.0386C425.147 75.1463 426.59 77.3488 428.016 79.6439C429.442 81.9403 430.821 84.3314 432.153 86.8163C433.483 89.3012 434.72 91.7393 435.861 94.1294H419.22C418.016 91.99 416.795 89.8203 415.559 87.6178C414.323 85.4163 413.055 83.2771 411.755 81.201C410.455 79.126 409.172 77.1601 407.904 75.3032C406.636 73.4474 405.368 71.7651 404.1 70.255H396.778V94.1294H381.944V29.6785C385.177 29.0492 388.521 28.6099 391.976 28.358C395.431 28.1061 398.522 27.9808 401.248 27.9808ZM402.104 40.5308C401.026 40.5308 400.059 40.5623 399.203 40.6256C398.347 40.6877 397.539 40.751 396.778 40.8142V58.5544H400.962C406.542 58.5544 410.534 57.8619 412.944 56.4783C415.353 55.0947 416.558 52.735 416.558 49.4008C416.558 46.193 415.337 43.9118 412.897 42.5599C410.455 41.2067 406.858 40.5308 402.104 40.5308ZM438.34 28.7352H453.173V94.1294H438.34V28.7352ZM505.48 94.1294C504.783 91.8647 504.007 89.5367 503.151 87.1467C502.295 84.7555 501.455 82.3654 500.63 79.9743H474.955C474.131 82.3654 473.292 84.7555 472.436 87.1467C471.58 89.5367 470.803 91.8647 470.107 94.1294H454.701C457.174 87.0835 459.519 80.573 461.738 74.5957C463.957 68.6194 466.128 62.9889 468.252 57.7048C470.376 52.421 472.468 47.4032 474.528 42.6537C476.588 37.9041 478.728 33.2647 480.947 28.7352H495.116C497.27 33.2647 499.394 37.9041 501.486 42.6537C503.579 47.4032 505.686 52.421 507.81 57.7048C509.934 62.9889 512.105 68.6194 514.324 74.5957C516.543 80.573 518.889 87.0835 521.361 94.1294H505.48ZM487.698 43.55C487.382 44.4941 486.906 45.784 486.272 47.4195C485.638 49.0551 484.909 50.9426 484.085 53.0807C483.26 55.2199 482.357 57.5796 481.375 60.1583C480.392 62.738 479.393 65.4431 478.379 68.2737H497.112C496.098 65.4431 495.116 62.738 494.164 60.1583C493.214 57.5796 492.311 55.2199 491.455 53.0807C490.599 50.9426 489.854 49.0551 489.22 47.4195C488.586 45.784 488.078 44.4941 487.698 43.55ZM567.105 94.1294C562.858 86.643 558.262 79.2514 553.318 71.9537C548.372 64.6559 543.111 57.7682 537.532 51.2883V94.1294H522.888V28.7352H534.965C537.057 30.8113 539.37 33.3595 541.906 36.3787C544.442 39.3979 547.025 42.622 549.656 46.0512C552.287 49.4793 554.902 53.0338 557.502 56.7137C560.1 60.3949 562.541 63.933 564.823 67.3306V28.7352H579.563V94.1294H567.105Z" fill="#95BF0B"/>
<path fill-rule="evenodd" clip-rule="evenodd" d="M200.973 173.682V108.415H245.009V120.753H215.779V134.409H241.782V146.747H215.779V173.682H200.973ZM292.468 173.682C291.772 171.421 290.996 169.098 290.143 166.712C289.288 164.326 288.449 161.941 287.627 159.555H262.003C261.18 161.941 260.342 164.326 259.488 166.712C258.633 169.098 257.858 171.421 257.163 173.682H241.788C244.255 166.65 246.596 160.152 248.811 154.186C251.025 148.222 253.192 142.602 255.311 137.328C257.431 132.054 259.519 127.047 261.575 122.306C263.631 117.567 265.767 112.936 267.981 108.415H282.123C284.274 112.936 286.394 117.567 288.481 122.306C290.57 127.047 292.673 132.054 294.793 137.328C296.912 142.602 299.079 148.222 301.294 154.186C303.508 160.152 305.849 166.65 308.317 173.682H292.468ZM274.72 123.202C274.404 124.144 273.929 125.43 273.296 127.062C272.663 128.696 271.936 130.579 271.114 132.714C270.291 134.849 269.389 137.203 268.409 139.777C267.428 142.351 266.431 145.051 265.419 147.876H284.116C283.104 145.051 282.123 142.351 281.173 139.777C280.225 137.203 279.323 134.849 278.469 132.714C277.614 130.579 276.871 128.696 276.239 127.062C275.606 125.43 275.099 124.144 274.72 123.202ZM339.831 175C329.138 175 320.992 172.049 315.392 166.147C309.793 160.245 306.993 151.864 306.993 141.002C306.993 135.602 307.847 130.783 309.556 126.545C311.264 122.306 313.604 118.728 316.579 115.809C319.552 112.889 323.096 110.676 327.208 109.169C331.321 107.662 335.781 106.908 340.59 106.908C343.374 106.908 345.905 107.112 348.183 107.521C350.461 107.929 352.453 108.4 354.161 108.933C355.87 109.467 357.294 110.016 358.432 110.582C359.572 111.147 360.394 111.586 360.9 111.9L356.629 123.766C354.604 122.699 352.247 121.788 349.559 121.035C346.87 120.282 343.816 119.905 340.4 119.905C338.122 119.905 335.892 120.282 333.709 121.035C331.527 121.788 329.596 122.998 327.919 124.661C326.243 126.325 324.899 128.476 323.887 131.112C322.874 133.75 322.368 136.952 322.368 140.719C322.368 143.733 322.7 146.543 323.364 149.148C324.029 151.754 325.104 153.999 326.591 155.882C328.078 157.766 330.023 159.256 332.428 160.355C334.832 161.454 337.742 162.003 341.16 162.003C343.311 162.003 345.24 161.877 346.949 161.627C348.656 161.376 350.175 161.077 351.504 160.732C352.833 160.387 354.003 159.994 355.016 159.555C356.028 159.116 356.946 158.707 357.768 158.331L360.413 165.962L361.849 170.103C360.869 170.692 359.701 171.254 358.345 171.788C356.811 172.392 355.037 172.96 353.023 173.493C349.227 174.498 344.829 175 339.831 175ZM408.358 173.682C407.663 171.421 406.887 169.098 406.033 166.712C405.178 164.326 404.34 161.941 403.518 159.555H377.894C377.071 161.941 376.232 164.326 375.379 166.712C374.524 169.098 373.749 171.421 373.054 173.682H357.678C357.902 173.046 358.124 172.415 358.345 171.788C359.045 169.802 359.734 167.86 360.413 165.962C361.892 161.829 363.321 157.904 364.702 154.186C366.916 148.222 369.083 142.602 371.202 137.328C373.322 132.054 375.409 127.047 377.466 122.306C379.522 117.567 381.658 112.936 383.872 108.415H398.013C400.165 112.936 402.284 117.567 404.372 122.306C406.461 127.047 408.564 132.054 410.683 137.328C412.803 142.602 414.97 148.222 417.185 154.186C419.399 160.152 421.74 166.65 424.208 173.682H408.358ZM390.611 123.202C390.294 124.144 389.82 125.43 389.187 127.062C388.554 128.696 387.827 130.579 387.005 132.714C386.182 134.849 385.28 137.203 384.3 139.777C383.318 142.351 382.322 145.051 381.31 147.876H400.006C398.994 145.051 398.013 142.351 397.064 139.777C396.116 137.203 395.214 134.849 394.36 132.714C393.505 130.579 392.762 128.696 392.129 127.062C391.496 125.43 390.99 124.144 390.611 123.202ZM440.537 161.721C441.232 161.784 442.039 161.831 442.956 161.862C443.874 161.894 444.965 161.909 446.231 161.909C453.633 161.909 459.123 160.057 462.697 156.353C466.272 152.649 468.059 147.532 468.059 141.002C468.059 134.158 466.351 128.978 462.934 125.462C459.518 121.945 454.108 120.188 446.705 120.188C445.693 120.188 444.649 120.203 443.574 120.235C442.498 120.266 441.485 120.345 440.537 120.47V161.721ZM483.339 141.002C483.339 146.652 482.453 151.581 480.682 155.788C478.91 159.994 476.395 163.479 473.136 166.241C469.878 169.004 465.907 171.076 461.226 172.457C456.544 173.839 451.293 174.529 445.472 174.529C442.815 174.529 439.714 174.42 436.17 174.2C432.628 173.98 429.148 173.525 425.731 172.835V109.263C429.148 108.635 432.707 108.211 436.408 107.991C440.109 107.772 443.288 107.662 445.946 107.662C451.577 107.662 456.687 108.29 461.273 109.546C465.86 110.801 469.799 112.779 473.089 115.479C476.379 118.178 478.91 121.631 480.682 125.838C482.453 130.046 483.339 135.099 483.339 141.002ZM488.659 173.682V108.415H533.076V120.753H503.465V133.561H529.753V145.616H503.465V161.344H535.258V169.492V170.112V173.682H488.659ZM557.091 162.474C559.179 162.474 560.903 162.302 562.263 161.956C563.624 161.611 564.716 161.14 565.538 160.544C566.361 159.948 566.93 159.241 567.246 158.424C567.563 157.609 567.721 156.698 567.721 155.693C567.721 153.559 566.709 151.785 564.684 150.372C562.659 148.96 559.179 147.437 554.244 145.805C552.093 145.051 549.942 144.188 547.79 143.215C545.639 142.241 543.709 141.017 542.001 139.542C540.293 138.066 538.901 136.277 537.825 134.174C536.75 132.071 536.211 129.511 536.211 126.498C536.211 123.484 536.782 120.769 537.92 118.352C539.059 115.934 540.672 113.878 542.76 112.182C544.849 110.487 547.379 109.185 550.352 108.275C553.327 107.364 556.68 106.908 560.413 106.908C564.842 106.908 568.67 107.379 571.896 108.321C575.123 109.263 577.781 110.299 579.869 111.429L575.598 123.013C573.763 122.071 571.723 121.24 569.477 120.517C567.231 119.795 564.526 119.434 561.362 119.434C557.819 119.434 555.272 119.921 553.722 120.894C552.172 121.867 551.396 123.359 551.396 125.368C551.396 126.561 551.682 127.565 552.251 128.382C552.82 129.197 553.627 129.936 554.671 130.594C555.714 131.254 556.918 131.85 558.278 132.385C559.638 132.918 561.14 133.467 562.785 134.032C566.202 135.288 569.176 136.528 571.707 137.752C574.238 138.977 576.342 140.405 578.018 142.037C579.695 143.67 580.944 145.584 581.766 147.783C582.589 149.98 583 152.649 583 155.788C583 161.877 580.849 166.602 576.547 169.961C572.244 173.321 565.76 175 557.091 175C554.181 175 551.555 174.828 549.214 174.482C546.873 174.136 544.8 173.713 542.997 173.211C541.194 172.708 539.644 172.175 538.347 171.61C537.138 171.083 536.109 170.584 535.258 170.112C535.195 170.077 535.134 170.043 535.073 170.008L535.258 169.492L539.248 158.331C541.21 159.398 543.63 160.355 546.509 161.203C549.388 162.051 552.915 162.474 557.091 162.474Z" fill="#868789"/>
<path d="M361.849 170.103L360.413 165.962C359.734 167.86 359.045 169.802 358.345 171.788C359.701 171.254 360.869 170.692 361.849 170.103Z" fill="#868789"/>
<path d="M535.258 170.112V169.492L535.073 170.008C535.134 170.043 535.195 170.077 535.258 170.112Z" fill="#868789"/>
<path fill-rule="evenodd" clip-rule="evenodd" d="M69.8553 110.346C69.4081 110.023 69.0385 109.58 68.8014 109.04C68.0894 107.419 68.8364 105.531 70.4702 104.824L80.6421 100.405C81.7042 99.944 82.3656 99.6777 82.9587 99.4395C83.9611 99.0373 84.7727 98.7107 85.2594 98.4394C85.3096 98.4038 85.3609 98.3687 85.4137 98.3355C85.5341 98.26 85.6278 98.1507 85.6926 98.0292C85.7991 97.83 85.8525 97.6171 85.8549 97.4229V97.411C85.8532 97.2642 85.7986 97.0854 85.7076 96.9025C85.6223 96.732 85.5103 96.5863 85.3863 96.4939C84.6897 95.972 83.4278 95.5766 82.3326 95.2336C81.7863 95.0627 81.2711 94.901 80.7447 94.701L80.3826 94.5632C79.3558 94.1727 78.3095 93.7749 76.8529 93.1824C74.6638 92.2904 72.6575 90.9374 71.1345 89.1796C69.7422 87.5721 68.7551 85.6339 68.3872 83.4023C68.332 83.1676 68.303 82.923 68.303 82.6719V71.7518C68.303 62.6399 69.5321 60.2654 74.7559 56.986C78.4001 54.6996 82.27 52.6458 86.0087 50.5046C75.4655 44.4663 64.9188 38.43 54.3735 32.3943L36.7109 42.5134V127.572L110.921 170.089C121.48 164.038 132.033 157.974 142.584 151.909L69.8553 110.346Z" fill="#C5C7C8"/>
<path fill-rule="evenodd" clip-rule="evenodd" d="M54.4133 145.113L42.4129 151.991L74.0065 170.092L86.0087 163.216L54.4133 145.113ZM114.788 59.5908C117.136 60.9399 116.78 64.3742 114.381 65.3335L103.267 70.1605C101.521 70.913 100.3 71.4409 99.5794 71.9578C99.035 72.3486 98.8528 73.3687 99.4931 73.7833C101.506 75.0963 105.662 76.0331 107.988 76.9805C110.407 77.9654 112.599 79.5112 114.165 81.5422C115.645 83.462 116.564 85.7979 116.605 88.4902C116.605 89.0525 116.617 89.7187 116.617 90.3063V99.09C116.617 103.424 116.399 106.024 115.059 108.405C113.709 110.8 111.58 112.339 107.778 114.517L98.9171 119.597L99.0969 119.699C109.568 125.702 120.046 131.698 130.512 137.711L148.209 127.571V42.5128C123.475 28.3421 98.7403 14.1709 74.0065 0L42.3687 18.1266C66.5054 31.9519 90.6469 45.7723 114.788 59.5908Z" fill="#95BF0B"/>
<path fill-rule="evenodd" clip-rule="evenodd" d="M47.7426 141.366L35.7397 148.187C23.8215 141.327 11.9082 134.455 0 127.578V42.5127L36.0798 21.9159L47.9248 28.7022L32.0003 37.7514L31.9485 37.7756L31.8972 37.8008L31.8459 37.8265L31.7956 37.8532L31.7454 37.881L31.696 37.9096L31.6473 37.9392L31.5989 37.9693L31.5512 38L31.5039 38.0321L31.4576 38.0648L31.4112 38.0978L31.3658 38.1325L31.321 38.1671L31.2773 38.2027L31.2339 38.2393L31.191 38.2762L31.1488 38.3143L31.1075 38.3528L31.0667 38.3925L31.0267 38.4325L30.9874 38.473L30.9486 38.5145L30.9107 38.5565L30.8739 38.5994L30.8375 38.643L30.8016 38.6869L30.7668 38.7313L30.7329 38.7768L30.6996 38.8224L30.6672 38.8692L30.6353 38.9162L30.6044 38.9637L30.5746 39.012L30.5452 39.0605L30.5167 39.1099L30.4895 39.1598L30.4625 39.2103L30.4366 39.2612L30.4123 39.3126L30.3878 39.3644L30.3649 39.4168L30.343 39.4697L30.3216 39.5235L30.3011 39.577L30.2818 39.6313L30.2639 39.6861L30.2463 39.7415L30.2303 39.7969L30.2143 39.8527L30.2001 39.9095L30.1859 39.9659L30.1734 40.0232L30.1625 40.0809L30.1517 40.1388L30.1427 40.197L30.1353 40.2554L30.1279 40.3143L30.1222 40.3735L30.1166 40.4333L30.1126 40.4932L30.1104 40.5534L30.1085 40.6137L30.108 40.6745L30.1075 129.417H30.1149L30.1152 129.469L30.1168 129.52L30.1188 129.572L30.121 129.623L30.125 129.675L30.1289 129.726L30.1344 129.777L30.1418 129.829L30.1492 129.88L30.1565 129.931L30.1656 129.981L30.1746 130.032L30.1854 130.082L30.1962 130.133L30.2085 130.183L30.221 130.233L30.2353 130.282L30.2495 130.332L30.2655 130.381L30.2814 130.43L30.2991 130.479L30.3167 130.527L30.3351 130.575L30.354 130.623L30.3739 130.671L30.3948 130.718L30.4162 130.765L30.4382 130.812L30.4615 130.858L30.485 130.904L30.5099 130.95L30.5348 130.995L30.5607 131.039L30.5876 131.084L30.6155 131.129L30.6433 131.172L30.6727 131.215L30.7022 131.258L30.733 131.3L30.7639 131.342L30.7958 131.384L30.8286 131.425L30.862 131.466L30.8963 131.506L30.9312 131.546L30.9665 131.585L31.0028 131.623L31.0397 131.661L31.0776 131.699L31.1159 131.736L31.1553 131.772L31.1951 131.808L31.2354 131.843L31.2768 131.878L31.3186 131.912L31.3615 131.945L31.4047 131.978L31.4486 132.01L31.4934 132.042L31.5387 132.073L31.585 132.103L31.6313 132.133L31.6787 132.161L31.727 132.189L40.1703 137.027L47.7426 141.366Z" fill="#4E9B3D"/>
<path fill-rule="evenodd" clip-rule="evenodd" d="M137.048 141.366L149.051 148.187C160.969 141.327 172.882 134.455 184.791 127.578V42.5128L110.587 0L98.7422 6.78646L152.79 37.7515L152.842 37.7756L152.893 37.8008L152.945 37.8265L152.995 37.8533L153.045 37.881L153.094 37.9096L153.143 37.9392L153.192 37.9693L153.239 38L153.287 38.0321L153.333 38.0648L153.379 38.0978L153.425 38.1326L153.469 38.1671L153.513 38.2027L153.557 38.2393L153.599 38.2762L153.642 38.3144L153.683 38.3528L153.724 38.3925L153.764 38.4325L153.803 38.473L153.842 38.5145L153.88 38.5566L153.917 38.5995L153.953 38.643L153.989 38.6869L154.024 38.7314L154.058 38.7768L154.091 38.8224L154.123 38.8692L154.155 38.9162L154.186 38.9637L154.216 39.0121L154.245 39.0606L154.274 39.1099L154.301 39.1598L154.328 39.2103L154.354 39.2612L154.378 39.3126L154.403 39.3644L154.426 39.4168L154.447 39.4697L154.469 39.5235L154.489 39.577L154.509 39.6313L154.527 39.6861L154.544 39.7416L154.56 39.7969L154.576 39.8527L154.591 39.9096L154.603 39.9659L154.616 40.0233L154.626 40.081L154.637 40.1388L154.646 40.1971L154.653 40.2554L154.661 40.3143L154.666 40.3736L154.672 40.4333L154.676 40.4932L154.678 40.5535L154.68 40.6137L154.681 40.6745L154.681 129.417H154.674L154.673 129.469L154.672 129.52L154.67 129.572L154.668 129.623L154.664 129.675L154.66 129.726L154.654 129.777L154.647 129.829L154.639 129.88L154.632 129.931L154.623 129.981L154.614 130.032L154.603 130.082L154.592 130.133L154.58 130.183L154.567 130.233L154.553 130.282L154.539 130.332L154.523 130.381L154.507 130.43L154.491 130.479L154.473 130.527L154.455 130.575L154.436 130.623L154.416 130.671L154.395 130.718L154.374 130.765L154.352 130.812L154.328 130.858L154.305 130.904L154.28 130.95L154.255 130.995L154.229 131.04L154.202 131.084L154.174 131.129L154.146 131.172L154.117 131.216L154.088 131.258L154.057 131.3L154.026 131.342L153.994 131.384L153.961 131.425L153.928 131.466L153.894 131.506L153.859 131.546L153.823 131.585L153.787 131.623L153.75 131.661L153.712 131.699L153.674 131.736L153.635 131.772L153.595 131.808L153.554 131.843L153.513 131.878L153.471 131.912L153.428 131.945L153.385 131.978L153.341 132.01L153.297 132.042L153.251 132.073L153.205 132.103L153.158 132.133L153.111 132.161L153.063 132.189L144.62 137.027L137.048 141.366Z" fill="#868789"/>
</svg>
