<svg width="77" height="82" viewBox="0 0 77 82" fill="none" xmlns="http://www.w3.org/2000/svg">
<path d="M21.2446 67.9553L72.4255 54.2414L57.8915 2.25498e-05L6.56943 13.7517C4.30088 14.3674 2.368 15.8555 1.19269 17.8912C0.0173799 19.9269 -0.304908 22.3449 0.296173 24.6173L13.6789 74.5622L13.6804 74.5618C13.6861 74.5831 13.6902 74.6046 13.696 74.6262C15.0359 79.6266 20.0918 82.7986 24.737 81.5539L76.0591 67.8022L74.8478 63.2817L23.5257 77.0334C21.4065 77.6012 18.8757 75.8765 18.216 73.4146C17.5862 71.0642 18.973 68.564 21.2446 67.9553ZM44.4249 8.50345L50.9658 32.9143L42.5209 28.7444L37.396 36.5127L30.8646 12.1369L44.4249 8.50345ZM26.3319 13.3011L34.5072 43.8118L38.9766 42.6143L44.1528 34.769L52.6307 38.9557L57.1078 37.756L48.9324 7.24525L54.5826 5.7313L66.6942 50.9325L24.8944 62.1327L12.7715 16.9345L26.3319 13.3011ZM7.7806 18.2719L8.25139 18.1457L20.3737 63.344L20.0329 63.4353C18.5632 63.8295 17.2218 64.6003 16.1413 65.6715L4.82575 23.4415C4.53338 22.3642 4.68028 21.2148 5.23422 20.2457C5.78817 19.2765 6.70393 18.5667 7.7806 18.2719Z" fill="url(#paint0_linear_503_1490)"/>
<defs>
<linearGradient id="paint0_linear_503_1490" x1="9.73069" y1="59.8275" x2="66.4565" y2="27.7373" gradientUnits="userSpaceOnUse">
<stop stop-color="#FF7A00"/>
<stop offset="1" stop-color="#FFA800"/>
</linearGradient>
</defs>
</svg>
